<svg width="500" height="500">
<rect width="500" height="500" />
<line x1="250.0" y1="250.0" x2="250.0" y2="375.0" stroke="white" stroke-width="50" />
<line x1="250.0" y1="250.0" x2="358.25317547305485" y2="187.50000000000003" stroke="white" stroke-width="50" />
<line x1="250.0" y1="250.0" x2="141.7468245269452" y2="187.49999999999994" stroke="white" stroke-width="50" />
<line x1="250.0" y1="375.0" x2="125.00000000000001" y2="466.5063509461097" stroke="white" stroke-width="50" />
<line x1="250.0" y1="375.0" x2="375.0" y2="466.5063509461097" stroke="white" stroke-width="50" />
<line x1="358.25317547305485" y1="187.50000000000003" x2="500.0" y2="250.00000000000003" stroke="white" stroke-width="50" />
<line x1="358.25317547305485" y1="187.50000000000003" x2="375.0" y2="33.49364905389032" stroke="white" stroke-width="50" />
<line x1="141.7468245269452" y1="187.49999999999994" x2="125.00000000000007" y2="33.493649053890294" stroke="white" stroke-width="50" />
<line x1="141.7468245269452" y1="187.49999999999994" x2="0.0" y2="249.99999999999974" stroke="white" stroke-width="50" />
<circle cx="375.0" cy="466.5063509461097" fill="black" r="50" />
<circle cx="500.0" cy="250.00000000000003" fill="black" r="50" />
<circle cx="375.0000000000001" cy="33.49364905389038" fill="black" r="50" />
<circle cx="125.00000000000007" cy="33.493649053890294" fill="black" r="50" />
<circle cx="0.0" cy="249.99999999999994" fill="black" r="50" />
<circle cx="124.99999999999989" cy="466.5063509461096" fill="black" r="50" />
<circle cx="358.25317547305485" cy="312.5" fill="black" r="50" />
<circle cx="250.00000000000003" cy="125.0" fill="black" r="50" />
<circle cx="141.74682452694512" cy="312.4999999999999" fill="black" r="50" />
</svg>