<?xml version="1.0" encoding="UTF-8" standalone="no"?>
<!DOCTYPE svg PUBLIC "-//W3C//DTD SVG 1.1//EN"
 "http://www.w3.org/Graphics/SVG/1.1/DTD/svg11.dtd">
<!-- Generated by graphviz version 2.43.0 (0)
 -->
<!-- Title: %3 Pages: 1 -->
<svg width="370pt" height="416pt"
 viewBox="0.00 0.00 369.75 416.26" xmlns="http://www.w3.org/2000/svg" xmlns:xlink="http://www.w3.org/1999/xlink">
<g id="graph0" class="graph" transform="scale(1 1) rotate(0) translate(4 412.26)">
<title>%3</title>
<polygon fill="white" stroke="transparent" points="-4,4 -4,-412.26 365.75,-412.26 365.75,4 -4,4"/>
<!-- r1 -->
<g id="node1" class="node">
<title>r1</title>
<ellipse fill="none" stroke="black" cx="131.84" cy="-141.03" rx="40.09" ry="40.09"/>
<text text-anchor="middle" x="131.84" y="-137.33" font-family="Times,serif" font-size="14.00">router</text>
</g>
<!-- r2 -->
<g id="node2" class="node">
<title>r2</title>
<ellipse fill="none" stroke="black" cx="131.84" cy="-267.23" rx="40.09" ry="40.09"/>
<text text-anchor="middle" x="131.84" y="-263.53" font-family="Times,serif" font-size="14.00">router</text>
</g>
<!-- r1&#45;&#45;r2 -->
<g id="edge1" class="edge">
<title>r1&#45;&#45;r2</title>
<path fill="none" stroke="black" d="M131.84,-181.66C131.84,-196.07 131.84,-212.28 131.84,-226.68"/>
</g>
<!-- s11 -->
<g id="node4" class="node">
<title>s11</title>
<ellipse fill="none" stroke="black" cx="30.55" cy="-95.51" rx="30.59" ry="30.59"/>
<text text-anchor="middle" x="30.55" y="-91.81" font-family="Times,serif" font-size="14.00">serv</text>
</g>
<!-- r1&#45;&#45;s11 -->
<g id="edge4" class="edge">
<title>r1&#45;&#45;s11</title>
<path fill="none" stroke="black" d="M94.99,-124.47C82.99,-119.08 69.88,-113.19 58.64,-108.14"/>
</g>
<!-- s12 -->
<g id="node5" class="node">
<title>s12</title>
<ellipse fill="none" stroke="black" cx="143.07" cy="-30.55" rx="30.59" ry="30.59"/>
<text text-anchor="middle" x="143.07" y="-26.85" font-family="Times,serif" font-size="14.00">serv</text>
</g>
<!-- r1&#45;&#45;s12 -->
<g id="edge5" class="edge">
<title>r1&#45;&#45;s12</title>
<path fill="none" stroke="black" d="M135.93,-100.83C137.26,-87.75 138.71,-73.45 139.95,-61.19"/>
</g>
<!-- r3 -->
<g id="node3" class="node">
<title>r3</title>
<ellipse fill="none" stroke="black" cx="241.13" cy="-204.13" rx="40.09" ry="40.09"/>
<text text-anchor="middle" x="241.13" y="-200.43" font-family="Times,serif" font-size="14.00">router</text>
</g>
<!-- r2&#45;&#45;r3 -->
<g id="edge2" class="edge">
<title>r2&#45;&#45;r3</title>
<path fill="none" stroke="black" d="M167.02,-246.92C179.5,-239.71 193.54,-231.61 206.02,-224.41"/>
</g>
<!-- s21 -->
<g id="node6" class="node">
<title>s21</title>
<ellipse fill="none" stroke="black" cx="143.07" cy="-377.72" rx="30.59" ry="30.59"/>
<text text-anchor="middle" x="143.07" y="-374.02" font-family="Times,serif" font-size="14.00">serv</text>
</g>
<!-- r2&#45;&#45;s21 -->
<g id="edge6" class="edge">
<title>r2&#45;&#45;s21</title>
<path fill="none" stroke="black" d="M135.93,-307.43C137.26,-320.51 138.71,-334.81 139.95,-347.07"/>
</g>
<!-- s22 -->
<g id="node7" class="node">
<title>s22</title>
<ellipse fill="none" stroke="black" cx="30.55" cy="-312.75" rx="30.59" ry="30.59"/>
<text text-anchor="middle" x="30.55" y="-309.05" font-family="Times,serif" font-size="14.00">serv</text>
</g>
<!-- r2&#45;&#45;s22 -->
<g id="edge7" class="edge">
<title>r2&#45;&#45;s22</title>
<path fill="none" stroke="black" d="M94.99,-283.79C82.99,-289.18 69.88,-295.07 58.64,-300.13"/>
</g>
<!-- r3&#45;&#45;r1 -->
<g id="edge3" class="edge">
<title>r3&#45;&#45;r1</title>
<path fill="none" stroke="black" d="M205.95,-183.82C193.47,-176.62 179.43,-168.51 166.96,-161.31"/>
</g>
<!-- s31 -->
<g id="node8" class="node">
<title>s31</title>
<ellipse fill="none" stroke="black" cx="331.2" cy="-139.17" rx="30.59" ry="30.59"/>
<text text-anchor="middle" x="331.2" y="-135.47" font-family="Times,serif" font-size="14.00">serv</text>
</g>
<!-- r3&#45;&#45;s31 -->
<g id="edge8" class="edge">
<title>r3&#45;&#45;s31</title>
<path fill="none" stroke="black" d="M273.9,-180.49C284.57,-172.8 296.22,-164.4 306.22,-157.19"/>
</g>
<!-- s32 -->
<g id="node9" class="node">
<title>s32</title>
<ellipse fill="none" stroke="black" cx="331.2" cy="-269.09" rx="30.59" ry="30.59"/>
<text text-anchor="middle" x="331.2" y="-265.39" font-family="Times,serif" font-size="14.00">serv</text>
</g>
<!-- r3&#45;&#45;s32 -->
<g id="edge9" class="edge">
<title>r3&#45;&#45;s32</title>
<path fill="none" stroke="black" d="M273.9,-227.77C284.57,-235.46 296.22,-243.87 306.22,-251.08"/>
</g>
</g>
</svg>
