<?xml version="1.0" encoding="UTF-8" standalone="no"?>
<!DOCTYPE svg PUBLIC "-//W3C//DTD SVG 1.1//EN"
 "http://www.w3.org/Graphics/SVG/1.1/DTD/svg11.dtd">
<!-- Generated by graphviz version 2.43.0 (0)
 -->
<!-- Title: %3 Pages: 1 -->
<svg width="319pt" height="357pt"
 viewBox="0.00 0.00 318.51 357.09" xmlns="http://www.w3.org/2000/svg" xmlns:xlink="http://www.w3.org/1999/xlink">
<g id="graph0" class="graph" transform="scale(1 1) rotate(0) translate(4 353.09)">
<title>%3</title>
<polygon fill="white" stroke="transparent" points="-4,4 -4,-353.09 314.51,-353.09 314.51,4 -4,4"/>
<!-- net -->
<g id="node1" class="node">
<title>net</title>
<ellipse fill="none" stroke="black" cx="155.25" cy="-174.55" rx="26" ry="26"/>
<text text-anchor="middle" x="155.25" y="-170.85" font-family="Times,serif" font-size="14.00">net</text>
</g>
<!-- h1 -->
<g id="node2" class="node">
<title>h1</title>
<ellipse fill="none" stroke="black" cx="191.25" cy="-236.9" rx="30.59" ry="30.59"/>
<text text-anchor="middle" x="191.25" y="-233.2" font-family="Times,serif" font-size="14.00">host</text>
</g>
<!-- net&#45;&#45;h1 -->
<g id="edge1" class="edge">
<title>net&#45;&#45;h1</title>
<path fill="none" stroke="black" d="M168.46,-197.41C170.86,-201.58 173.4,-205.97 175.86,-210.24"/>
</g>
<!-- h2 -->
<g id="node3" class="node">
<title>h2</title>
<ellipse fill="none" stroke="black" cx="83.25" cy="-174.55" rx="30.59" ry="30.59"/>
<text text-anchor="middle" x="83.25" y="-170.85" font-family="Times,serif" font-size="14.00">host</text>
</g>
<!-- net&#45;&#45;h2 -->
<g id="edge2" class="edge">
<title>net&#45;&#45;h2</title>
<path fill="none" stroke="black" d="M128.85,-174.55C124.04,-174.55 118.97,-174.55 114.04,-174.55"/>
</g>
<!-- h3 -->
<g id="node4" class="node">
<title>h3</title>
<ellipse fill="none" stroke="black" cx="191.25" cy="-112.19" rx="30.59" ry="30.59"/>
<text text-anchor="middle" x="191.25" y="-108.49" font-family="Times,serif" font-size="14.00">host</text>
</g>
<!-- net&#45;&#45;h3 -->
<g id="edge3" class="edge">
<title>net&#45;&#45;h3</title>
<path fill="none" stroke="black" d="M168.46,-151.68C170.86,-147.51 173.4,-143.13 175.86,-138.86"/>
</g>
<!-- s11 -->
<g id="node5" class="node">
<title>s11</title>
<ellipse fill="none" stroke="black" cx="279.96" cy="-246.55" rx="30.59" ry="30.59"/>
<text text-anchor="middle" x="279.96" y="-242.85" font-family="Times,serif" font-size="14.00">serv</text>
</g>
<!-- h1&#45;&#45;s11 -->
<g id="edge4" class="edge">
<title>h1&#45;&#45;s11</title>
<path fill="none" stroke="black" d="M221.78,-240.22C230.7,-241.19 240.45,-242.25 249.38,-243.22"/>
</g>
<!-- s12 -->
<g id="node6" class="node">
<title>s12</title>
<ellipse fill="none" stroke="black" cx="155.25" cy="-318.55" rx="30.59" ry="30.59"/>
<text text-anchor="middle" x="155.25" y="-314.85" font-family="Times,serif" font-size="14.00">serv</text>
</g>
<!-- h1&#45;&#45;s12 -->
<g id="edge5" class="edge">
<title>h1&#45;&#45;s12</title>
<path fill="none" stroke="black" d="M178.87,-265C175.25,-273.21 171.29,-282.18 167.67,-290.4"/>
</g>
<!-- s21 -->
<g id="node7" class="node">
<title>s21</title>
<ellipse fill="none" stroke="black" cx="30.55" cy="-246.55" rx="30.59" ry="30.59"/>
<text text-anchor="middle" x="30.55" y="-242.85" font-family="Times,serif" font-size="14.00">serv</text>
</g>
<!-- h2&#45;&#45;s21 -->
<g id="edge6" class="edge">
<title>h2&#45;&#45;s21</title>
<path fill="none" stroke="black" d="M65.12,-199.33C59.87,-206.48 54.15,-214.3 48.9,-221.48"/>
</g>
<!-- s22 -->
<g id="node8" class="node">
<title>s22</title>
<ellipse fill="none" stroke="black" cx="30.55" cy="-102.55" rx="30.59" ry="30.59"/>
<text text-anchor="middle" x="30.55" y="-98.85" font-family="Times,serif" font-size="14.00">serv</text>
</g>
<!-- h2&#45;&#45;s22 -->
<g id="edge7" class="edge">
<title>h2&#45;&#45;s22</title>
<path fill="none" stroke="black" d="M65.12,-149.77C59.87,-142.61 54.15,-134.79 48.9,-127.62"/>
</g>
<!-- s31 -->
<g id="node9" class="node">
<title>s31</title>
<ellipse fill="none" stroke="black" cx="155.25" cy="-30.55" rx="30.59" ry="30.59"/>
<text text-anchor="middle" x="155.25" y="-26.85" font-family="Times,serif" font-size="14.00">serv</text>
</g>
<!-- h3&#45;&#45;s31 -->
<g id="edge8" class="edge">
<title>h3&#45;&#45;s31</title>
<path fill="none" stroke="black" d="M178.87,-84.1C175.25,-75.88 171.29,-66.91 167.67,-58.7"/>
</g>
<!-- s32 -->
<g id="node10" class="node">
<title>s32</title>
<ellipse fill="none" stroke="black" cx="279.96" cy="-102.55" rx="30.59" ry="30.59"/>
<text text-anchor="middle" x="279.96" y="-98.85" font-family="Times,serif" font-size="14.00">serv</text>
</g>
<!-- h3&#45;&#45;s32 -->
<g id="edge9" class="edge">
<title>h3&#45;&#45;s32</title>
<path fill="none" stroke="black" d="M221.78,-108.87C230.7,-107.9 240.45,-106.84 249.38,-105.87"/>
</g>
</g>
</svg>
